  <svg

            version="1.1"
            id="Layer_1"
            xmlns="http://www.w3.org/2000/svg"
            xmlns:xlink="http://www.w3.org/1999/xlink"
            viewBox="0 0 512 512"
            xml:space="preserve"
            fill="#000000"
          >
            <g stroke-width="0" />

            <g stroke-linecap="round" stroke-linejoin="round" />

            <g>
              <polygon
                style="fill:#E2EFF0;"
                points="167.211,204.578 256.273,256 167.211,307.413 "
              />
              <polygon
                style="fill:#A9D0D3;"
                points="167.091,204.817 256.137,153.404 256.137,256.23 "
              />
              <g>
                <polygon
                  style="fill:#C5DFE2;"
                  points="167.091,307.183 256.137,255.761 256.137,358.596 "
                />
                <polygon
                  style="fill:#C5DFE2;"
                  points="255.863,153.404 344.909,204.817 255.863,256.23 "
                />
              </g>
              <polygon
                style="fill:#A9D0D3;"
                points="255.863,255.761 344.909,307.183 255.863,358.596 "
              />
              <polygon
                style="fill:#E2EFF0;"
                points="255.727,256 344.789,204.578 344.789,307.413 "
              />
              <path
                style="fill:#475bf0;"
                d="M122.59,318.396L6.554,287.309L0,311.774l91.571,24.533l-61.269,35.371l12.663,21.939l61.269-35.371 l-24.533,91.571l24.465,6.554l31.095-116.036l32.085-18.526l75.989,43.861v37.069l-84.941,84.941l17.911,17.911l67.038-67.038v70.75 h25.327v-70.75l67.038,67.038l17.911-17.911l-84.941-84.941V365.67l75.989-43.861l32.085,18.526l31.095,116.036l24.465-6.554 l-24.533-91.571l61.269,35.371l12.663-21.939l-61.269-35.371L512,311.774l-6.554-24.465L389.41,318.404l-32.085-18.526V212.13 l32.085-18.526L505.446,224.7L512,200.226l-91.571-24.533l61.269-35.371l-12.663-21.939l-61.269,35.371l24.533-91.571l-24.465-6.554 l-31.087,116.036l-32.085,18.526l-75.989-43.861v-37.069l84.941-84.941L335.701,6.409l-67.038,67.038V2.697h-25.327v70.75 L176.299,6.409L158.387,24.32l84.941,84.941v37.069l-75.989,43.861l-32.085-18.526L104.166,55.629l-24.465,6.554l24.533,91.571 l-61.269-35.371l-12.663,21.939l61.269,35.371L0,200.226l6.554,24.465l116.036-31.095l32.085,18.526v87.748L122.59,318.396z M331.989,285.244L281.327,256l50.662-29.244V285.244z M268.663,175.573l50.645,29.244l-50.645,29.244V175.573z M268.663,277.939 l50.645,29.244l-50.645,29.244V277.939z M243.337,336.427l-50.645-29.244l50.645-29.244V336.427z M243.337,175.573v58.487 l-50.645-29.244L243.337,175.573z M180.011,226.748L230.673,256l-50.662,29.252V226.748z"
              />
            </g>
          </svg>